<?xml version="1.0" standalone="no"?>
<svg viewBox="0 0 200 200" xmlns="http://www.w3.org/2000/svg">
  <path fill="#8A3FFC" d="M34.1,-55.3C46.5,-52,60.4,-47.4,71,-38C81.6,-28.6,89,-14.3,89.2,0.1C89.3,14.5,82.3,28.9,74.4,43.2C66.5,57.4,57.9,71.4,45.4,75.2C32.8,79,16.4,72.6,1.6,69.9C-13.2,67.1,-26.4,67.8,-39.4,64.3C-52.5,60.8,-65.3,53,-73.6,41.5C-81.9,30.1,-85.6,15,-81.6,2.3C-77.7,-10.5,-66,-20.9,-55.9,-29.2C-45.8,-37.5,-37.2,-43.6,-28.2,-48.8C-19.1,-54,-9.6,-58.3,0.7,-59.4C10.9,-60.6,21.8,-58.6,34.1,-55.3Z" transform="translate(100 100)" />
</svg>
