<?xml version="1.0" standalone="no"?>
<svg viewBox="0 0 200 200" xmlns="http://www.w3.org/2000/svg">
  <path fill="#8A3FFC" d="M31.4,-50.5C43.9,-47.1,59.7,-45.3,64,-37.2C68.3,-29,61.2,-14.5,59.4,-1C57.6,12.4,61.1,24.8,57.1,33.6C53.2,42.4,41.8,47.5,31,57C20.2,66.5,10.1,80.4,0.2,80C-9.6,79.6,-19.3,64.8,-30.4,55.5C-41.4,46.2,-54,42.3,-61.5,33.9C-69,25.6,-71.5,12.8,-74,-1.4C-76.4,-15.6,-78.7,-31.2,-71.3,-39.6C-63.8,-48.1,-46.5,-49.3,-33,-52.1C-19.4,-54.9,-9.7,-59.2,-0.2,-59C9.4,-58.7,18.8,-53.8,31.4,-50.5Z" transform="translate(100 100)" />
</svg>
