<?xml version="1.0" standalone="no"?>
<svg viewBox="0 0 200 200" xmlns="http://www.w3.org/2000/svg">
  <path fill="#F1C21B" d="M29.9,-47.1C42.6,-44.4,59.6,-44.3,66.5,-36.9C73.5,-29.4,70.6,-14.7,72.1,0.9C73.7,16.5,79.7,33,76.7,47.3C73.7,61.6,61.7,73.8,47.4,74C33.1,74.1,16.5,62.2,3.8,55.7C-9,49.2,-18,48,-31.8,47.6C-45.6,47.1,-64.2,47.5,-73.4,39.7C-82.6,31.9,-82.3,15.9,-78.9,2C-75.5,-12,-68.8,-23.9,-61.8,-35.4C-54.7,-46.8,-47.2,-57.7,-36.8,-61.8C-26.4,-65.8,-13.2,-63,-2.3,-59C8.6,-54.9,17.1,-49.7,29.9,-47.1Z" transform="translate(100 100)" />
</svg>
