<svg width="602.016259765625px" height="167.60249023437498px" xmlns="http://www.w3.org/2000/svg" viewBox="-51.00812988281251 -8.801245117187491 602.016259765625 167.60249023437498" style="background: rgba(109, 78, 62, 0);" preserveAspectRatio="xMidYMid"><defs><filter id="editing-golden" x="-100%" y="-100%" width="300%" height="300%"><feFlood flood-color="#000000" result="flood"></feFlood><feFlood flood-color="rgba(81.17647058823529%,69.80392156862743%,60.39215686274508%,0)" result="flood-light"></feFlood><feComposite operator="in" in="flood" in2="SourceAlpha" result="flood-comp"></feComposite><feGaussianBlur in="flood-comp" stdDeviation="3" result="blur"></feGaussianBlur><feOffset in="blur" dy="3" result="offset-blur"></feOffset><feComponentTransfer in="offset-blur" result="comp-blur"><feFuncA type="linear" slope="0.7" intercept="-0.1"></feFuncA></feComponentTransfer><feSpecularLighting surfaceScale="200" specularConstant="20" specularExponent="1" lighting-color="#fff" in="blur" result="specular"><fePointLight x="-250" y="-250" z="3500"></fePointLight></feSpecularLighting><feComponentTransfer in="specular" result="inspecular"><feFuncA type="linear" slope="-1" intercept="1"></feFuncA></feComponentTransfer><feComposite operator="in" in="flood-light" in2="inspecular" result="inspecular2"></feComposite><feComposite operator="in" in="inspecular2" in2="SourceAlpha" result="light"></feComposite><feMerge><feMergeNode in="comp-blur"></feMergeNode><feMergeNode in="SourceGraphic"></feMergeNode><feMergeNode in="light"></feMergeNode></feMerge></filter></defs><g filter="url(#editing-golden)"><g transform="translate(39.81469249725342, 116.79999923706055)"><path d="M23.06-10.03L23.06 0L14.26 0.09L14.26-59.58L7.57-59.58L7.57-59.58Q3.43-59.58 1.41-57.73L1.41-57.73L1.41-57.73Q-0.62-55.88-0.62-53.37L-0.62-53.37L-0.62-53.37Q-0.62-50.86 0.53-49.32L0.53-49.32L0.53-49.32Q1.67-47.78 3.74-47.78L3.74-47.78L3.74-47.78Q5.81-47.78 6.91-48.75L6.91-48.75L6.91-48.75Q8.01-49.72 8.49-50.69L8.49-50.69L8.49-50.69Q8.98-51.66 9.50-51.66L9.50-51.66L9.50-51.66Q10.03-51.66 10.03-50.34L10.03-50.34L10.03-50.34Q10.03-49.02 8.05-47.56L8.05-47.56L8.05-47.56Q6.07-46.11 3.43-46.11L3.43-46.11L3.43-46.11Q0.79-46.11-0.79-48.14L-0.79-48.14L-0.79-48.14Q-2.38-50.16-2.38-53.20L-2.38-53.20L-2.38-53.20Q-2.38-56.23 0.22-58.74L0.22-58.74L0.22-58.74Q2.82-61.25 7.66-61.25L7.66-61.25L31.77-61.25L31.77-61.25Q40.22-61.25 46.60-56.72L46.60-56.72L46.60-56.72Q52.98-52.18 56.14-44.92L56.14-44.92L56.14-44.92Q59.31-37.66 59.31-28.86L59.31-28.86L59.31-28.86Q59.31-16.90 53.55-8.05L53.55-8.05L53.55-8.05Q47.78 0.79 38.28 0.79L38.28 0.79L38.28 0.79Q32.30 0.79 27.98-2.11L27.98-2.11L27.98-2.11Q23.67-5.02 23.06-10.03L23.06-10.03ZM49.41-16.50L49.41-16.50L49.41-16.50Q50.16-20.77 50.34-23.36L50.34-23.36L50.34-23.36Q50.51-25.96 50.51-29.92L50.51-29.92L50.51-29.92Q50.51-33.88 49.28-39.20L49.28-39.20L49.28-39.20Q48.05-44.53 45.63-49.19L45.63-49.19L45.63-49.19Q43.21-53.86 39.03-56.67L39.03-56.67L39.03-56.67Q34.85-59.49 29.48-59.49L29.48-59.49L23.06-59.49L23.06-12.58L23.06-12.58Q23.41-15.93 25.56-17.64L25.56-17.64L25.56-17.64Q27.72-19.36 29.96-19.36L29.96-19.36L29.96-19.36Q32.21-19.36 33.92-18.57L33.92-18.57L33.92-18.57Q35.64-17.78 35.64-16.98L35.64-16.98L35.64-16.98Q35.64-16.63 35.33-16.32L35.33-16.32L35.33-16.32Q35.02-16.02 34.80-16.02L34.80-16.02L34.80-16.02Q34.58-16.02 33.26-16.81L33.26-16.81L33.26-16.81Q31.94-17.60 29.66-17.60L29.66-17.60L29.66-17.60Q27.37-17.60 26.05-15.62L26.05-15.62L26.05-15.62Q24.73-13.64 24.73-11.53L24.73-11.53L24.73-11.53Q24.73-7.30 28.29-4.14L28.29-4.14L28.29-4.14Q31.86-0.97 37.58-0.97L37.58-0.97L37.58-0.97Q41.01-0.97 43.56-3.39L43.56-3.39L43.56-3.39Q46.11-5.81 47.39-9.02L47.39-9.02L47.39-9.02Q48.66-12.23 49.41-16.50ZM80.26-3.08L80.26-3.08L80.26-3.08Q81.49-2.20 83.38-1.58L83.38-1.58L83.38-1.58Q85.27-0.97 88-0.97L88-0.97L88-0.97Q90.73-0.97 93.81-2.24L93.81-2.24L93.81-2.24Q96.89-3.52 98.12-6.07L98.12-6.07L100.67-6.07L100.67-6.07Q97.24 0.88 86.24 0.88L86.24 0.88L86.24 0.88Q77.79 0.88 71.94-5.15L71.94-5.15L71.94-5.15Q66.09-11.18 66.09-20.28L66.09-20.28L66.09-20.28Q66.09-29.39 72.25-35.51L72.25-35.51L72.25-35.51Q78.41-41.62 85.67-41.62L85.67-41.62L85.67-41.62Q92.93-41.62 97.11-37.62L97.11-37.62L97.11-37.62Q101.29-33.62 101.29-28.16L101.29-28.16L101.29-28.16Q101.29-22.70 96.80-18.48L96.80-18.48L96.80-18.48Q92.31-14.26 85.01-14.26L85.01-14.26L85.01-14.26Q77.70-14.26 74.80-20.50L74.80-20.50L74.80-20.50Q74.89-19.89 75.02-17.86L75.02-17.86L75.02-17.86Q75.15-15.84 75.24-14.70L75.24-14.70L75.24-14.70Q75.33-13.55 75.72-11.53L75.72-11.53L75.72-11.53Q76.12-9.50 76.60-8.27L76.60-8.27L76.60-8.27Q77.09-7.04 78.06-5.50L78.06-5.50L78.06-5.50Q79.02-3.96 80.26-3.08ZM93.72-28.60L93.72-28.60L93.72-28.60Q93.72-39.95 85.10-39.95L85.10-39.95L85.10-39.95Q80.87-39.95 78.19-35.86L78.19-35.86L78.19-35.86Q75.50-31.77 75.15-25.96L75.15-25.96L75.15-25.96Q76.21-28.42 78.36-29.92L78.36-29.92L78.36-29.92Q80.52-31.42 82.85-31.42L82.85-31.42L82.85-31.42Q85.18-31.42 85.18-30.58L85.18-30.58L85.18-30.58Q85.18-29.74 84.13-29.74L84.13-29.74L84.13-29.74Q80.08-29.48 78.19-27.72L78.19-27.72L78.19-27.72Q76.30-25.96 76.30-22.97L76.30-22.97L76.30-22.97Q76.30-19.98 78.45-17.91L78.45-17.91L78.45-17.91Q80.61-15.84 83.51-15.84L83.51-15.84L83.51-15.84Q88.26-15.84 90.99-19.67L90.99-19.67L90.99-19.67Q93.72-23.50 93.72-28.60ZM137.72-34.76L137.72-34.76L138.07-32.12L138.07-32.12Q138.07-31.42 137.46-31.42L137.46-31.42L137.46-31.42Q135.96-31.42 135.96-35.20L135.96-35.20L135.96-35.20Q135.96-37.14 137.63-38.90L137.63-38.90L137.63-38.90Q139.30-40.66 142.16-40.66L142.16-40.66L142.16-40.66Q145.02-40.66 147.14-37.84L147.14-37.84L147.14-37.84Q149.25-35.02 149.25-30.32L149.25-30.32L149.25-30.32Q149.25-25.61 148.15-20.68L148.15-20.68L148.15-20.68Q147.05-15.75 144.89-10.78L144.89-10.78L144.89-10.78Q142.74-5.81 138.82-2.46L138.82-2.46L138.82-2.46Q134.90 0.88 130.06 0.88L130.06 0.88L130.06 0.88Q126.81 0.88 124.56-0.66L124.56-0.66L124.56-0.66Q122.32-2.20 121.26-4.84L121.26-4.84L121.26-4.84Q119.33-9.68 119.33-15.40L119.33-15.40L119.59-25.08L119.59-25.08Q119.59-35.02 116.95-37.49L116.95-37.49L116.95-37.49Q115.63-38.72 113.61-38.72L113.61-38.72L113.61-38.72Q111.58-38.72 110.18-37.66L110.18-37.66L110.18-37.66Q108.77-36.61 108.15-34.85L108.15-34.85L108.15-34.85Q107.01-31.59 107.01-28.86L107.01-28.86L107.01-28.86Q107.01-26.14 108.15-24.20L108.15-24.20L108.15-24.20Q109.30-22.26 112.11-22.26L112.11-22.26L112.11-22.26Q113.43-22.26 114.58-22.88L114.58-22.88L114.58-22.88Q115.72-23.50 115.81-23.50L115.81-23.50L115.81-23.50Q116.42-23.50 116.42-22.48L116.42-22.48L116.42-22.48Q116.42-21.47 114.71-20.99L114.71-20.99L114.71-20.99Q112.99-20.50 111.50-20.50L111.50-20.50L111.50-20.50Q108.68-20.50 106.96-22.97L106.96-22.97L106.96-22.97Q105.25-25.43 105.25-28.34L105.25-28.34L105.25-28.34Q105.25-33.88 108.42-37.88L108.42-37.88L108.42-37.88Q111.58-41.89 118.18-41.89L118.18-41.89L118.18-41.89Q124.08-41.89 126.10-36.96L126.10-36.96L126.10-36.96Q127.86-32.91 127.86-26.31L127.86-26.31L127.60-13.99L127.60-13.99Q127.60-7.83 128.44-4.36L128.44-4.36L128.44-4.36Q129.27-0.88 131.74-0.88L131.74-0.88L131.74-0.88Q135.52-0.88 139.26-5.37L139.26-5.37L139.26-5.37Q143-9.86 145.24-16.37L145.24-16.37L145.24-16.37Q147.49-22.88 147.49-28.25L147.49-28.25L147.49-28.25Q147.49-33.62 145.73-36.26L145.73-36.26L145.73-36.26Q143.97-38.90 141.42-38.90L141.42-38.90L141.42-38.90Q140.01-38.90 138.86-37.84L138.86-37.84L138.86-37.84Q137.72-36.78 137.72-34.76ZM163.86 17.60L163.86 12.32L212.96 12.32L212.96 17.60L163.86 17.60ZM247.28-61.25L247.28 0L238.48 0L238.48-59.49L231.79-59.49L231.79-59.49Q227.66-59.49 225.63-57.68L225.63-57.68L225.63-57.68Q223.61-55.88 223.61-53.42L223.61-53.42L223.61-53.42Q223.61-50.95 224.84-49.41L224.84-49.41L224.84-49.41Q226.07-47.87 228.14-47.87L228.14-47.87L228.14-47.87Q230.21-47.87 231.18-48.84L231.18-48.84L231.18-48.84Q232.14-49.81 232.67-50.73L232.67-50.73L232.67-50.73Q233.20-51.66 233.73-51.66L233.73-51.66L233.73-51.66Q234.26-51.66 234.26-50.34L234.26-50.34L234.26-50.34Q234.26-49.02 232.28-47.56L232.28-47.56L232.28-47.56Q230.30-46.11 227.66-46.11L227.66-46.11L227.66-46.11Q225.02-46.11 223.43-48.14L223.43-48.14L223.43-48.14Q221.85-50.16 221.85-53.20L221.85-53.20L221.85-53.20Q221.85-56.23 224.44-58.74L224.44-58.74L224.44-58.74Q227.04-61.25 231.88-61.25L231.88-61.25L247.28-61.25ZM270.51-27.63L270.51-27.63Q270.51-25.52 271.61-23.54L271.61-23.54L271.61-23.54Q272.71-21.56 274.69-21.56L274.69-21.56L274.69-21.56Q276.67-21.56 277.77-22.04L277.77-22.04L277.77-22.04Q278.87-22.53 279.05-22.53L279.05-22.53L279.05-22.53Q279.58-22.53 279.58-21.82L279.58-21.82L279.58-21.82Q279.58-21.12 278.56-20.46L278.56-20.46L278.56-20.46Q277.55-19.80 274.96-19.80L274.96-19.80L274.96-19.80Q272.36-19.80 270.69-21.91L270.69-21.91L270.69-21.91Q269.02-24.02 268.75-26.58L268.75-26.58L268.75 0L260.04 0L260.04-40.74L268.75-40.74L268.75-27.90L268.75-27.90Q269.10-33.44 274.21-37.53L274.21-37.53L274.21-37.53Q279.31-41.62 284.90-41.62L284.90-41.62L284.90-41.62Q290.49-41.62 292.91-38.24L292.91-38.24L292.91-38.24Q295.33-34.85 295.94-28.51L295.94-28.51L295.94-28.51Q296.30-33.79 301.44-37.71L301.44-37.71L301.44-37.71Q306.59-41.62 312.05-41.62L312.05-41.62L312.05-41.62Q317.86-41.62 320.63-37.62L320.63-37.62L320.63-37.62Q323.40-33.62 323.40-20.59L323.40-20.59L323.40 0L314.60 0L314.60-18.30L314.60-18.30Q314.60-28.69 313.50-33.79L313.50-33.79L313.50-33.79Q312.40-38.90 309.32-38.90L309.32-38.90L309.32-38.90Q305.45-38.90 301.58-35.29L301.58-35.29L301.58-35.29Q297.70-31.68 297.70-27.63L297.70-27.63L297.70-27.63Q297.70-25.52 298.80-23.54L298.80-23.54L298.80-23.54Q299.90-21.56 302.37-21.56L302.37-21.56L302.37-21.56Q303.86-21.56 304.96-22.04L304.96-22.04L304.96-22.04Q306.06-22.53 306.24-22.53L306.24-22.53L306.24-22.53Q306.77-22.53 306.77-21.82L306.77-21.82L306.77-21.82Q306.77-21.12 305.76-20.46L305.76-20.46L305.76-20.46Q304.74-19.80 302.32-19.80L302.32-19.80L302.32-19.80Q299.90-19.80 298.23-21.52L298.23-21.52L298.23-21.52Q296.56-23.23 296.12-25.96L296.12-25.96L296.12-25.96Q296.21-24.29 296.21-20.59L296.21-20.59L296.21 0L287.41 0L287.41-18.30L287.41-18.30Q287.41-28.69 286.31-33.79L286.31-33.79L286.31-33.79Q285.21-38.90 282.13-38.90L282.13-38.90L282.13-38.90Q278.26-38.90 274.38-35.29L274.38-35.29L274.38-35.29Q270.51-31.68 270.51-27.63L270.51-27.63ZM331.41-20.33L331.41-20.33L331.41-20.33Q331.41-29.30 337.61-35.38L337.61-35.38L337.61-35.38Q343.82-41.45 353.54-41.45L353.54-41.45L353.54-41.45Q363.26-41.45 369.34-35.73L369.34-35.73L369.34-35.73Q375.41-30.01 375.41-20.68L375.41-20.68L375.41-20.68Q375.41-15.14 373.30-10.87L373.30-10.87L373.30-10.87Q371.18-6.60 367.84-4.22L367.84-4.22L367.84-4.22Q360.98 0.44 353.50 0.44L353.50 0.44L353.50 0.44Q346.19 0.44 339.24-4.40L339.24-4.40L339.24-4.40Q335.81-6.78 333.61-10.96L333.61-10.96L333.61-10.96Q331.41-15.14 331.41-20.33ZM356.49-25.96L356.49-25.96L353.94-26.49L353.94-26.49Q352.26-26.49 351.08-25.04L351.08-25.04L351.08-25.04Q349.89-23.58 349.89-21.60L349.89-21.60L349.89-21.60Q349.89-19.62 351.65-17.69L351.65-17.69L351.65-17.69Q353.41-15.75 356.62-15.75L356.62-15.75L356.62-15.75Q359.83-15.75 362.96-18.88L362.96-18.88L362.96-18.88Q366.08-22 366.08-27.72L366.08-27.72L366.08-27.72Q366.08-33.44 362.43-36.56L362.43-36.56L362.43-36.56Q358.78-39.69 353.23-39.69L353.23-39.69L353.23-39.69Q349.71-39.69 347.16-38.32L347.16-38.32L347.16-38.32Q344.61-36.96 343.29-35.02L343.29-35.02L343.29-35.02Q341.97-33.09 341.26-30.10L341.26-30.10L341.26-30.10Q340.21-25.70 340.21-19.89L340.21-19.89L340.21-19.89Q340.21-1.32 353.76-1.32L353.76-1.32L353.76-1.32Q361.77-1.32 364.32-7.39L364.32-7.39L364.32-7.39Q366.52-12.58 366.52-20.86L366.52-20.86L366.52-20.86Q365.73-18.57 362.87-16.28L362.87-16.28L362.87-16.28Q360.01-13.99 356.58-13.99L356.58-13.99L356.58-13.99Q353.14-13.99 350.64-16.32L350.64-16.32L350.64-16.32Q348.13-18.66 348.13-21.56L348.13-21.56L348.13-21.56Q348.13-24.46 349.71-26.36L349.71-26.36L349.71-26.36Q351.30-28.25 354.24-28.25L354.24-28.25L354.24-28.25Q357.19-28.25 357.19-26.58L357.19-26.58L357.19-26.58Q357.19-25.96 356.49-25.96ZM394.42-27.63L394.42-27.63Q394.42-25.52 395.52-23.54L395.52-23.54L395.52-23.54Q396.62-21.56 398.60-21.56L398.60-21.56L398.60-21.56Q400.58-21.56 401.68-22.04L401.68-22.04L401.68-22.04Q402.78-22.53 402.95-22.53L402.95-22.53L402.95-22.53Q403.48-22.53 403.48-21.82L403.48-21.82L403.48-21.82Q403.48-21.12 402.47-20.46L402.47-20.46L402.47-20.46Q401.46-19.80 398.86-19.80L398.86-19.80L398.86-19.80Q396.26-19.80 394.59-21.91L394.59-21.91L394.59-21.91Q392.92-24.02 392.66-26.58L392.66-26.58L392.66 0L383.94 0L383.94-66L392.66-66L392.66-27.90L392.66-27.90Q393.01-33.44 398.11-37.53L398.11-37.53L398.11-37.53Q403.22-41.62 408.76-41.62L408.76-41.62L408.76-41.62Q414.57-41.62 417.34-37.62L417.34-37.62L417.34-37.62Q420.11-33.62 420.11-20.59L420.11-20.59L420.11 0L411.31 0L411.31-18.30L411.31-18.30Q411.31-28.69 410.21-33.79L410.21-33.79L410.21-33.79Q409.11-38.90 406.03-38.90L406.03-38.90L406.03-38.90Q402.16-38.90 398.29-35.29L398.29-35.29L398.29-35.29Q394.42-31.68 394.42-27.63L394.42-27.63Z" fill="#8a3ffc"></path></g></g><style>text {
  font-size: 64px;
  font-family: Arial Black;
  dominant-baseline: central;
  text-anchor: middle;
}</style></svg>